<mxfile host="Electron" modified="2025-05-14T12:10:39.298Z" agent="Mozilla/5.0 (Windows NT 10.0; Win64; x64) AppleWebKit/537.36 (KHTML, like Gecko) draw.io/22.0.3 Chrome/114.0.5735.289 Electron/25.8.4 Safari/537.36" etag="OFBjiiPIKVrjkFn0gcR7" version="22.0.3" type="device">
  <diagram name="PÃ¡gina-1" id="5NMcBoD9xluHxUGKGJME">
    <mxGraphModel dx="1556" dy="1544" grid="1" gridSize="10" guides="1" tooltips="1" connect="1" arrows="1" fold="1" page="1" pageScale="1" pageWidth="583" pageHeight="827" math="0" shadow="0">
      <root>
        <mxCell id="0" />
        <mxCell id="1" parent="0" />
        <mxCell id="fhPOaMHas8F5NW810UET-1" value="Personagem" style="whiteSpace=wrap;html=1;align=center;" vertex="1" parent="1">
          <mxGeometry x="242" y="60" width="100" height="40" as="geometry" />
        </mxCell>
        <mxCell id="fhPOaMHas8F5NW810UET-3" value="idCharacter (PK)" style="ellipse;whiteSpace=wrap;html=1;align=center;" vertex="1" parent="1">
          <mxGeometry x="52" y="60" width="100" height="40" as="geometry" />
        </mxCell>
        <mxCell id="fhPOaMHas8F5NW810UET-4" value="tipo" style="ellipse;whiteSpace=wrap;html=1;align=center;" vertex="1" parent="1">
          <mxGeometry x="312" y="194" width="100" height="40" as="geometry" />
        </mxCell>
        <mxCell id="fhPOaMHas8F5NW810UET-5" value="nome" style="ellipse;whiteSpace=wrap;html=1;align=center;" vertex="1" parent="1">
          <mxGeometry x="102" y="130" width="100" height="40" as="geometry" />
        </mxCell>
        <mxCell id="fhPOaMHas8F5NW810UET-6" value="idade" style="ellipse;whiteSpace=wrap;html=1;align=center;" vertex="1" parent="1">
          <mxGeometry x="172" y="194" width="100" height="40" as="geometry" />
        </mxCell>
        <mxCell id="fhPOaMHas8F5NW810UET-7" value="resumo" style="ellipse;whiteSpace=wrap;html=1;align=center;" vertex="1" parent="1">
          <mxGeometry x="382" y="130" width="100" height="40" as="geometry" />
        </mxCell>
        <mxCell id="fhPOaMHas8F5NW810UET-8" value="status" style="ellipse;whiteSpace=wrap;html=1;align=center;" vertex="1" parent="1">
          <mxGeometry x="432" y="60" width="100" height="40" as="geometry" />
        </mxCell>
        <mxCell id="fhPOaMHas8F5NW810UET-11" value="" style="endArrow=none;html=1;rounded=0;" edge="1" parent="1" source="fhPOaMHas8F5NW810UET-3" target="fhPOaMHas8F5NW810UET-1">
          <mxGeometry relative="1" as="geometry">
            <mxPoint x="202" y="200" as="sourcePoint" />
            <mxPoint x="362" y="200" as="targetPoint" />
          </mxGeometry>
        </mxCell>
        <mxCell id="fhPOaMHas8F5NW810UET-13" value="" style="endArrow=none;html=1;rounded=0;" edge="1" parent="1" source="fhPOaMHas8F5NW810UET-5" target="fhPOaMHas8F5NW810UET-1">
          <mxGeometry relative="1" as="geometry">
            <mxPoint x="162" y="90" as="sourcePoint" />
            <mxPoint x="252" y="90" as="targetPoint" />
          </mxGeometry>
        </mxCell>
        <mxCell id="fhPOaMHas8F5NW810UET-14" value="" style="endArrow=none;html=1;rounded=0;" edge="1" parent="1" source="fhPOaMHas8F5NW810UET-7" target="fhPOaMHas8F5NW810UET-1">
          <mxGeometry relative="1" as="geometry">
            <mxPoint x="172" y="100" as="sourcePoint" />
            <mxPoint x="262" y="100" as="targetPoint" />
          </mxGeometry>
        </mxCell>
        <mxCell id="fhPOaMHas8F5NW810UET-15" value="" style="endArrow=none;html=1;rounded=0;" edge="1" parent="1" source="fhPOaMHas8F5NW810UET-6" target="fhPOaMHas8F5NW810UET-1">
          <mxGeometry relative="1" as="geometry">
            <mxPoint x="182" y="110" as="sourcePoint" />
            <mxPoint x="272" y="110" as="targetPoint" />
          </mxGeometry>
        </mxCell>
        <mxCell id="fhPOaMHas8F5NW810UET-16" value="" style="endArrow=none;html=1;rounded=0;" edge="1" parent="1" source="fhPOaMHas8F5NW810UET-4" target="fhPOaMHas8F5NW810UET-1">
          <mxGeometry relative="1" as="geometry">
            <mxPoint x="192" y="120" as="sourcePoint" />
            <mxPoint x="282" y="120" as="targetPoint" />
          </mxGeometry>
        </mxCell>
        <mxCell id="fhPOaMHas8F5NW810UET-17" value="" style="endArrow=none;html=1;rounded=0;" edge="1" parent="1" source="fhPOaMHas8F5NW810UET-8" target="fhPOaMHas8F5NW810UET-1">
          <mxGeometry relative="1" as="geometry">
            <mxPoint x="202" y="130" as="sourcePoint" />
            <mxPoint x="292" y="130" as="targetPoint" />
          </mxGeometry>
        </mxCell>
        <mxCell id="fhPOaMHas8F5NW810UET-18" value="Proficiencia" style="whiteSpace=wrap;html=1;align=center;" vertex="1" parent="1">
          <mxGeometry x="232" y="350" width="100" height="40" as="geometry" />
        </mxCell>
        <mxCell id="fhPOaMHas8F5NW810UET-19" value="Cenario" style="whiteSpace=wrap;html=1;align=center;" vertex="1" parent="1">
          <mxGeometry x="242" y="610" width="100" height="40" as="geometry" />
        </mxCell>
        <mxCell id="fhPOaMHas8F5NW810UET-20" value="Musica" style="whiteSpace=wrap;html=1;align=center;" vertex="1" parent="1">
          <mxGeometry x="242" y="840" width="100" height="40" as="geometry" />
        </mxCell>
        <mxCell id="fhPOaMHas8F5NW810UET-21" value="Evento" style="whiteSpace=wrap;html=1;align=center;" vertex="1" parent="1">
          <mxGeometry x="825" y="50" width="100" height="40" as="geometry" />
        </mxCell>
        <mxCell id="fhPOaMHas8F5NW810UET-22" value="Dialogo" style="whiteSpace=wrap;html=1;align=center;" vertex="1" parent="1">
          <mxGeometry x="825" y="339" width="100" height="40" as="geometry" />
        </mxCell>
        <mxCell id="fhPOaMHas8F5NW810UET-23" value="Iventario" style="whiteSpace=wrap;html=1;align=center;" vertex="1" parent="1">
          <mxGeometry x="827" y="880" width="100" height="40" as="geometry" />
        </mxCell>
        <mxCell id="fhPOaMHas8F5NW810UET-24" value="Item" style="whiteSpace=wrap;html=1;align=center;" vertex="1" parent="1">
          <mxGeometry x="825" y="600" width="100" height="40" as="geometry" />
        </mxCell>
        <mxCell id="fhPOaMHas8F5NW810UET-25" value="idRecord (PK)" style="ellipse;whiteSpace=wrap;html=1;align=center;" vertex="1" parent="1">
          <mxGeometry x="72" y="293" width="100" height="40" as="geometry" />
        </mxCell>
        <mxCell id="fhPOaMHas8F5NW810UET-26" value="idCharacter (FK)" style="ellipse;whiteSpace=wrap;html=1;align=center;" vertex="1" parent="1">
          <mxGeometry x="32" y="360" width="100" height="40" as="geometry" />
        </mxCell>
        <mxCell id="fhPOaMHas8F5NW810UET-27" value="for" style="ellipse;whiteSpace=wrap;html=1;align=center;" vertex="1" parent="1">
          <mxGeometry x="92" y="430" width="100" height="40" as="geometry" />
        </mxCell>
        <mxCell id="fhPOaMHas8F5NW810UET-28" value="cons" style="ellipse;whiteSpace=wrap;html=1;align=center;" vertex="1" parent="1">
          <mxGeometry x="172" y="480" width="100" height="40" as="geometry" />
        </mxCell>
        <mxCell id="fhPOaMHas8F5NW810UET-29" value="inte" style="ellipse;whiteSpace=wrap;html=1;align=center;" vertex="1" parent="1">
          <mxGeometry x="402" y="290" width="100" height="40" as="geometry" />
        </mxCell>
        <mxCell id="fhPOaMHas8F5NW810UET-30" value="sab" style="ellipse;whiteSpace=wrap;html=1;align=center;" vertex="1" parent="1">
          <mxGeometry x="452" y="360" width="100" height="40" as="geometry" />
        </mxCell>
        <mxCell id="fhPOaMHas8F5NW810UET-31" value="car" style="ellipse;whiteSpace=wrap;html=1;align=center;" vertex="1" parent="1">
          <mxGeometry x="382" y="430" width="100" height="40" as="geometry" />
        </mxCell>
        <mxCell id="fhPOaMHas8F5NW810UET-32" value="des" style="ellipse;whiteSpace=wrap;html=1;align=center;" vertex="1" parent="1">
          <mxGeometry x="292" y="480" width="100" height="40" as="geometry" />
        </mxCell>
        <mxCell id="fhPOaMHas8F5NW810UET-33" value="" style="endArrow=none;html=1;rounded=0;" edge="1" parent="1" source="fhPOaMHas8F5NW810UET-25" target="fhPOaMHas8F5NW810UET-18">
          <mxGeometry relative="1" as="geometry">
            <mxPoint x="232" y="174" as="sourcePoint" />
            <mxPoint x="282" y="80" as="targetPoint" />
          </mxGeometry>
        </mxCell>
        <mxCell id="fhPOaMHas8F5NW810UET-34" value="" style="endArrow=none;html=1;rounded=0;" edge="1" parent="1" source="fhPOaMHas8F5NW810UET-27" target="fhPOaMHas8F5NW810UET-18">
          <mxGeometry relative="1" as="geometry">
            <mxPoint x="170" y="336" as="sourcePoint" />
            <mxPoint x="242" y="362" as="targetPoint" />
          </mxGeometry>
        </mxCell>
        <mxCell id="fhPOaMHas8F5NW810UET-35" value="" style="endArrow=none;html=1;rounded=0;" edge="1" parent="1" source="fhPOaMHas8F5NW810UET-28" target="fhPOaMHas8F5NW810UET-18">
          <mxGeometry relative="1" as="geometry">
            <mxPoint x="180" y="346" as="sourcePoint" />
            <mxPoint x="252" y="372" as="targetPoint" />
          </mxGeometry>
        </mxCell>
        <mxCell id="fhPOaMHas8F5NW810UET-36" value="" style="endArrow=none;html=1;rounded=0;" edge="1" parent="1" source="fhPOaMHas8F5NW810UET-32" target="fhPOaMHas8F5NW810UET-18">
          <mxGeometry relative="1" as="geometry">
            <mxPoint x="190" y="356" as="sourcePoint" />
            <mxPoint x="262" y="382" as="targetPoint" />
          </mxGeometry>
        </mxCell>
        <mxCell id="fhPOaMHas8F5NW810UET-37" value="" style="endArrow=none;html=1;rounded=0;" edge="1" parent="1" source="fhPOaMHas8F5NW810UET-31" target="fhPOaMHas8F5NW810UET-18">
          <mxGeometry relative="1" as="geometry">
            <mxPoint x="200" y="366" as="sourcePoint" />
            <mxPoint x="272" y="392" as="targetPoint" />
          </mxGeometry>
        </mxCell>
        <mxCell id="fhPOaMHas8F5NW810UET-38" value="" style="endArrow=none;html=1;rounded=0;" edge="1" parent="1" source="fhPOaMHas8F5NW810UET-30" target="fhPOaMHas8F5NW810UET-18">
          <mxGeometry relative="1" as="geometry">
            <mxPoint x="210" y="376" as="sourcePoint" />
            <mxPoint x="282" y="402" as="targetPoint" />
          </mxGeometry>
        </mxCell>
        <mxCell id="fhPOaMHas8F5NW810UET-39" value="" style="endArrow=none;html=1;rounded=0;" edge="1" parent="1" source="fhPOaMHas8F5NW810UET-29" target="fhPOaMHas8F5NW810UET-18">
          <mxGeometry relative="1" as="geometry">
            <mxPoint x="220" y="386" as="sourcePoint" />
            <mxPoint x="292" y="412" as="targetPoint" />
          </mxGeometry>
        </mxCell>
        <mxCell id="fhPOaMHas8F5NW810UET-40" value="" style="endArrow=none;html=1;rounded=0;" edge="1" parent="1" source="fhPOaMHas8F5NW810UET-26" target="fhPOaMHas8F5NW810UET-18">
          <mxGeometry relative="1" as="geometry">
            <mxPoint x="230" y="396" as="sourcePoint" />
            <mxPoint x="302" y="422" as="targetPoint" />
          </mxGeometry>
        </mxCell>
        <mxCell id="fhPOaMHas8F5NW810UET-41" value="idScenario (PK)" style="ellipse;whiteSpace=wrap;html=1;align=center;" vertex="1" parent="1">
          <mxGeometry x="82" y="610" width="100" height="40" as="geometry" />
        </mxCell>
        <mxCell id="fhPOaMHas8F5NW810UET-42" value="descricao" style="ellipse;whiteSpace=wrap;html=1;align=center;" vertex="1" parent="1">
          <mxGeometry x="402" y="610" width="100" height="40" as="geometry" />
        </mxCell>
        <mxCell id="fhPOaMHas8F5NW810UET-43" value="nome" style="ellipse;whiteSpace=wrap;html=1;align=center;" vertex="1" parent="1">
          <mxGeometry x="242" y="710" width="100" height="40" as="geometry" />
        </mxCell>
        <mxCell id="fhPOaMHas8F5NW810UET-44" value="" style="endArrow=none;html=1;rounded=0;" edge="1" parent="1" source="fhPOaMHas8F5NW810UET-41" target="fhPOaMHas8F5NW810UET-19">
          <mxGeometry relative="1" as="geometry">
            <mxPoint x="251" y="470" as="sourcePoint" />
            <mxPoint x="293" y="380" as="targetPoint" />
          </mxGeometry>
        </mxCell>
        <mxCell id="fhPOaMHas8F5NW810UET-45" value="" style="endArrow=none;html=1;rounded=0;" edge="1" parent="1" source="fhPOaMHas8F5NW810UET-43" target="fhPOaMHas8F5NW810UET-19">
          <mxGeometry relative="1" as="geometry">
            <mxPoint x="261" y="480" as="sourcePoint" />
            <mxPoint x="303" y="390" as="targetPoint" />
          </mxGeometry>
        </mxCell>
        <mxCell id="fhPOaMHas8F5NW810UET-46" value="" style="endArrow=none;html=1;rounded=0;" edge="1" parent="1" source="fhPOaMHas8F5NW810UET-42" target="fhPOaMHas8F5NW810UET-19">
          <mxGeometry relative="1" as="geometry">
            <mxPoint x="271" y="490" as="sourcePoint" />
            <mxPoint x="313" y="400" as="targetPoint" />
          </mxGeometry>
        </mxCell>
        <mxCell id="fhPOaMHas8F5NW810UET-47" value="duracao" style="ellipse;whiteSpace=wrap;html=1;align=center;" vertex="1" parent="1">
          <mxGeometry x="162" y="920" width="100" height="40" as="geometry" />
        </mxCell>
        <mxCell id="fhPOaMHas8F5NW810UET-48" value="tema" style="ellipse;whiteSpace=wrap;html=1;align=center;" vertex="1" parent="1">
          <mxGeometry x="317" y="920" width="100" height="40" as="geometry" />
        </mxCell>
        <mxCell id="fhPOaMHas8F5NW810UET-49" value="idScenario (FK)" style="ellipse;whiteSpace=wrap;html=1;align=center;" vertex="1" parent="1">
          <mxGeometry x="392" y="840" width="100" height="40" as="geometry" />
        </mxCell>
        <mxCell id="fhPOaMHas8F5NW810UET-50" value="idMusic (PK)" style="ellipse;whiteSpace=wrap;html=1;align=center;" vertex="1" parent="1">
          <mxGeometry x="92" y="840" width="100" height="40" as="geometry" />
        </mxCell>
        <mxCell id="fhPOaMHas8F5NW810UET-51" value="" style="endArrow=none;html=1;rounded=0;" edge="1" parent="1" source="fhPOaMHas8F5NW810UET-20" target="fhPOaMHas8F5NW810UET-50">
          <mxGeometry relative="1" as="geometry">
            <mxPoint x="282" y="1010" as="sourcePoint" />
            <mxPoint x="192" y="1010" as="targetPoint" />
          </mxGeometry>
        </mxCell>
        <mxCell id="fhPOaMHas8F5NW810UET-52" value="" style="endArrow=none;html=1;rounded=0;" edge="1" parent="1" source="fhPOaMHas8F5NW810UET-20" target="fhPOaMHas8F5NW810UET-47">
          <mxGeometry relative="1" as="geometry">
            <mxPoint x="292" y="1020" as="sourcePoint" />
            <mxPoint x="202" y="1020" as="targetPoint" />
          </mxGeometry>
        </mxCell>
        <mxCell id="fhPOaMHas8F5NW810UET-53" value="" style="endArrow=none;html=1;rounded=0;" edge="1" parent="1" source="fhPOaMHas8F5NW810UET-20" target="fhPOaMHas8F5NW810UET-48">
          <mxGeometry relative="1" as="geometry">
            <mxPoint x="302" y="1030" as="sourcePoint" />
            <mxPoint x="212" y="1030" as="targetPoint" />
          </mxGeometry>
        </mxCell>
        <mxCell id="fhPOaMHas8F5NW810UET-54" value="" style="endArrow=none;html=1;rounded=0;" edge="1" parent="1" source="fhPOaMHas8F5NW810UET-20" target="fhPOaMHas8F5NW810UET-49">
          <mxGeometry relative="1" as="geometry">
            <mxPoint x="312" y="1040" as="sourcePoint" />
            <mxPoint x="222" y="1040" as="targetPoint" />
          </mxGeometry>
        </mxCell>
        <mxCell id="fhPOaMHas8F5NW810UET-55" value="idEvent (PK)" style="ellipse;whiteSpace=wrap;html=1;align=center;" vertex="1" parent="1">
          <mxGeometry x="635" y="50" width="100" height="40" as="geometry" />
        </mxCell>
        <mxCell id="fhPOaMHas8F5NW810UET-56" value="tipo" style="ellipse;whiteSpace=wrap;html=1;align=center;" vertex="1" parent="1">
          <mxGeometry x="895" y="184" width="100" height="40" as="geometry" />
        </mxCell>
        <mxCell id="fhPOaMHas8F5NW810UET-57" value="nome" style="ellipse;whiteSpace=wrap;html=1;align=center;" vertex="1" parent="1">
          <mxGeometry x="685" y="120" width="100" height="40" as="geometry" />
        </mxCell>
        <mxCell id="fhPOaMHas8F5NW810UET-58" value="descricao" style="ellipse;whiteSpace=wrap;html=1;align=center;" vertex="1" parent="1">
          <mxGeometry x="755" y="184" width="100" height="40" as="geometry" />
        </mxCell>
        <mxCell id="fhPOaMHas8F5NW810UET-59" value="condicao" style="ellipse;whiteSpace=wrap;html=1;align=center;" vertex="1" parent="1">
          <mxGeometry x="965" y="120" width="100" height="40" as="geometry" />
        </mxCell>
        <mxCell id="fhPOaMHas8F5NW810UET-60" value="status" style="ellipse;whiteSpace=wrap;html=1;align=center;" vertex="1" parent="1">
          <mxGeometry x="1015" y="50" width="100" height="40" as="geometry" />
        </mxCell>
        <mxCell id="fhPOaMHas8F5NW810UET-61" value="" style="endArrow=none;html=1;rounded=0;" edge="1" parent="1" source="fhPOaMHas8F5NW810UET-55" target="fhPOaMHas8F5NW810UET-21">
          <mxGeometry relative="1" as="geometry">
            <mxPoint x="785" y="190" as="sourcePoint" />
            <mxPoint x="825" y="70" as="targetPoint" />
          </mxGeometry>
        </mxCell>
        <mxCell id="fhPOaMHas8F5NW810UET-62" value="" style="endArrow=none;html=1;rounded=0;" edge="1" parent="1" source="fhPOaMHas8F5NW810UET-57" target="fhPOaMHas8F5NW810UET-21">
          <mxGeometry relative="1" as="geometry">
            <mxPoint x="745" y="80" as="sourcePoint" />
            <mxPoint x="835" y="90" as="targetPoint" />
          </mxGeometry>
        </mxCell>
        <mxCell id="fhPOaMHas8F5NW810UET-63" value="" style="endArrow=none;html=1;rounded=0;" edge="1" parent="1" source="fhPOaMHas8F5NW810UET-59" target="fhPOaMHas8F5NW810UET-21">
          <mxGeometry relative="1" as="geometry">
            <mxPoint x="755" y="90" as="sourcePoint" />
            <mxPoint x="915" y="90" as="targetPoint" />
          </mxGeometry>
        </mxCell>
        <mxCell id="fhPOaMHas8F5NW810UET-64" value="" style="endArrow=none;html=1;rounded=0;" edge="1" parent="1" source="fhPOaMHas8F5NW810UET-58" target="fhPOaMHas8F5NW810UET-21">
          <mxGeometry relative="1" as="geometry">
            <mxPoint x="765" y="100" as="sourcePoint" />
            <mxPoint x="865" y="90" as="targetPoint" />
          </mxGeometry>
        </mxCell>
        <mxCell id="fhPOaMHas8F5NW810UET-65" value="" style="endArrow=none;html=1;rounded=0;" edge="1" parent="1" source="fhPOaMHas8F5NW810UET-56" target="fhPOaMHas8F5NW810UET-21">
          <mxGeometry relative="1" as="geometry">
            <mxPoint x="775" y="110" as="sourcePoint" />
            <mxPoint x="885" y="90" as="targetPoint" />
          </mxGeometry>
        </mxCell>
        <mxCell id="fhPOaMHas8F5NW810UET-66" value="" style="endArrow=none;html=1;rounded=0;" edge="1" parent="1" source="fhPOaMHas8F5NW810UET-60" target="fhPOaMHas8F5NW810UET-21">
          <mxGeometry relative="1" as="geometry">
            <mxPoint x="785" y="120" as="sourcePoint" />
            <mxPoint x="925" y="70" as="targetPoint" />
          </mxGeometry>
        </mxCell>
        <mxCell id="fhPOaMHas8F5NW810UET-67" value="idEvent (FK)" style="ellipse;whiteSpace=wrap;html=1;align=center;" vertex="1" parent="1">
          <mxGeometry x="825" y="449" width="100" height="40" as="geometry" />
        </mxCell>
        <mxCell id="fhPOaMHas8F5NW810UET-68" value="idSpeech (PK)" style="ellipse;whiteSpace=wrap;html=1;align=center;" vertex="1" parent="1">
          <mxGeometry x="665" y="339" width="100" height="40" as="geometry" />
        </mxCell>
        <mxCell id="fhPOaMHas8F5NW810UET-69" value="condicao" style="ellipse;whiteSpace=wrap;html=1;align=center;" vertex="1" parent="1">
          <mxGeometry x="985" y="339" width="100" height="40" as="geometry" />
        </mxCell>
        <mxCell id="fhPOaMHas8F5NW810UET-70" value="texto" style="ellipse;whiteSpace=wrap;html=1;align=center;" vertex="1" parent="1">
          <mxGeometry x="935" y="399" width="100" height="40" as="geometry" />
        </mxCell>
        <mxCell id="fhPOaMHas8F5NW810UET-71" value="idCharacter (FK)" style="ellipse;whiteSpace=wrap;html=1;align=center;" vertex="1" parent="1">
          <mxGeometry x="715" y="399" width="100" height="40" as="geometry" />
        </mxCell>
        <mxCell id="fhPOaMHas8F5NW810UET-72" value="" style="endArrow=none;html=1;rounded=0;" edge="1" parent="1" source="fhPOaMHas8F5NW810UET-68" target="fhPOaMHas8F5NW810UET-22">
          <mxGeometry relative="1" as="geometry">
            <mxPoint x="855" y="153" as="sourcePoint" />
            <mxPoint x="905" y="59" as="targetPoint" />
          </mxGeometry>
        </mxCell>
        <mxCell id="fhPOaMHas8F5NW810UET-73" value="" style="endArrow=none;html=1;rounded=0;" edge="1" parent="1" source="fhPOaMHas8F5NW810UET-71" target="fhPOaMHas8F5NW810UET-22">
          <mxGeometry relative="1" as="geometry">
            <mxPoint x="775" y="369" as="sourcePoint" />
            <mxPoint x="835" y="369" as="targetPoint" />
          </mxGeometry>
        </mxCell>
        <mxCell id="fhPOaMHas8F5NW810UET-74" value="" style="endArrow=none;html=1;rounded=0;" edge="1" parent="1" source="fhPOaMHas8F5NW810UET-67" target="fhPOaMHas8F5NW810UET-22">
          <mxGeometry relative="1" as="geometry">
            <mxPoint x="785" y="379" as="sourcePoint" />
            <mxPoint x="845" y="379" as="targetPoint" />
          </mxGeometry>
        </mxCell>
        <mxCell id="fhPOaMHas8F5NW810UET-75" value="" style="endArrow=none;html=1;rounded=0;" edge="1" parent="1" source="fhPOaMHas8F5NW810UET-70" target="fhPOaMHas8F5NW810UET-22">
          <mxGeometry relative="1" as="geometry">
            <mxPoint x="795" y="389" as="sourcePoint" />
            <mxPoint x="855" y="389" as="targetPoint" />
          </mxGeometry>
        </mxCell>
        <mxCell id="fhPOaMHas8F5NW810UET-76" value="" style="endArrow=none;html=1;rounded=0;" edge="1" parent="1" source="fhPOaMHas8F5NW810UET-69" target="fhPOaMHas8F5NW810UET-22">
          <mxGeometry relative="1" as="geometry">
            <mxPoint x="805" y="399" as="sourcePoint" />
            <mxPoint x="865" y="399" as="targetPoint" />
          </mxGeometry>
        </mxCell>
        <mxCell id="fhPOaMHas8F5NW810UET-78" value="descricao" style="ellipse;whiteSpace=wrap;html=1;align=center;" vertex="1" parent="1">
          <mxGeometry x="825" y="710" width="100" height="40" as="geometry" />
        </mxCell>
        <mxCell id="fhPOaMHas8F5NW810UET-79" value="idItem (PK)" style="ellipse;whiteSpace=wrap;html=1;align=center;" vertex="1" parent="1">
          <mxGeometry x="665" y="600" width="100" height="40" as="geometry" />
        </mxCell>
        <mxCell id="fhPOaMHas8F5NW810UET-80" value="consumivel" style="ellipse;whiteSpace=wrap;html=1;align=center;" vertex="1" parent="1">
          <mxGeometry x="985" y="600" width="100" height="40" as="geometry" />
        </mxCell>
        <mxCell id="fhPOaMHas8F5NW810UET-81" value="efeito" style="ellipse;whiteSpace=wrap;html=1;align=center;" vertex="1" parent="1">
          <mxGeometry x="935" y="660" width="100" height="40" as="geometry" />
        </mxCell>
        <mxCell id="fhPOaMHas8F5NW810UET-82" value="nome" style="ellipse;whiteSpace=wrap;html=1;align=center;" vertex="1" parent="1">
          <mxGeometry x="715" y="660" width="100" height="40" as="geometry" />
        </mxCell>
        <mxCell id="fhPOaMHas8F5NW810UET-83" value="" style="endArrow=none;html=1;rounded=0;" edge="1" parent="1" source="fhPOaMHas8F5NW810UET-79" target="fhPOaMHas8F5NW810UET-24">
          <mxGeometry relative="1" as="geometry">
            <mxPoint x="855" y="414" as="sourcePoint" />
            <mxPoint x="825" y="620" as="targetPoint" />
          </mxGeometry>
        </mxCell>
        <mxCell id="fhPOaMHas8F5NW810UET-84" value="" style="endArrow=none;html=1;rounded=0;" edge="1" parent="1" source="fhPOaMHas8F5NW810UET-82" target="fhPOaMHas8F5NW810UET-24">
          <mxGeometry relative="1" as="geometry">
            <mxPoint x="775" y="630" as="sourcePoint" />
            <mxPoint x="838" y="640" as="targetPoint" />
          </mxGeometry>
        </mxCell>
        <mxCell id="fhPOaMHas8F5NW810UET-85" value="" style="endArrow=none;html=1;rounded=0;" edge="1" parent="1" source="fhPOaMHas8F5NW810UET-78" target="fhPOaMHas8F5NW810UET-24">
          <mxGeometry relative="1" as="geometry">
            <mxPoint x="785" y="640" as="sourcePoint" />
            <mxPoint x="875" y="640" as="targetPoint" />
          </mxGeometry>
        </mxCell>
        <mxCell id="fhPOaMHas8F5NW810UET-86" value="" style="endArrow=none;html=1;rounded=0;" edge="1" parent="1" source="fhPOaMHas8F5NW810UET-81" target="fhPOaMHas8F5NW810UET-24">
          <mxGeometry relative="1" as="geometry">
            <mxPoint x="795" y="650" as="sourcePoint" />
            <mxPoint x="912" y="640" as="targetPoint" />
          </mxGeometry>
        </mxCell>
        <mxCell id="fhPOaMHas8F5NW810UET-87" value="" style="endArrow=none;html=1;rounded=0;" edge="1" parent="1" source="fhPOaMHas8F5NW810UET-80" target="fhPOaMHas8F5NW810UET-24">
          <mxGeometry relative="1" as="geometry">
            <mxPoint x="805" y="660" as="sourcePoint" />
            <mxPoint x="925" y="620" as="targetPoint" />
          </mxGeometry>
        </mxCell>
        <mxCell id="fhPOaMHas8F5NW810UET-88" value="idIventory (PK)" style="ellipse;whiteSpace=wrap;html=1;align=center;" vertex="1" parent="1">
          <mxGeometry x="687" y="880" width="100" height="40" as="geometry" />
        </mxCell>
        <mxCell id="fhPOaMHas8F5NW810UET-89" value="idCharacter (FK)" style="ellipse;whiteSpace=wrap;html=1;align=center;" vertex="1" parent="1">
          <mxGeometry x="965" y="880" width="100" height="40" as="geometry" />
        </mxCell>
        <mxCell id="fhPOaMHas8F5NW810UET-90" value="idIventory (FK)" style="ellipse;whiteSpace=wrap;html=1;align=center;" vertex="1" parent="1">
          <mxGeometry x="955" y="520" width="100" height="40" as="geometry" />
        </mxCell>
        <mxCell id="fhPOaMHas8F5NW810UET-91" value="" style="endArrow=none;html=1;rounded=0;" edge="1" parent="1" source="fhPOaMHas8F5NW810UET-90" target="fhPOaMHas8F5NW810UET-24">
          <mxGeometry relative="1" as="geometry">
            <mxPoint x="995" y="630" as="sourcePoint" />
            <mxPoint x="935" y="630" as="targetPoint" />
          </mxGeometry>
        </mxCell>
        <mxCell id="fhPOaMHas8F5NW810UET-92" value="" style="endArrow=none;html=1;rounded=0;" edge="1" parent="1" source="fhPOaMHas8F5NW810UET-23" target="fhPOaMHas8F5NW810UET-88">
          <mxGeometry relative="1" as="geometry">
            <mxPoint x="1007" y="410" as="sourcePoint" />
            <mxPoint x="947" y="410" as="targetPoint" />
          </mxGeometry>
        </mxCell>
        <mxCell id="fhPOaMHas8F5NW810UET-93" value="" style="endArrow=none;html=1;rounded=0;" edge="1" parent="1" source="fhPOaMHas8F5NW810UET-23" target="fhPOaMHas8F5NW810UET-89">
          <mxGeometry relative="1" as="geometry">
            <mxPoint x="1017" y="420" as="sourcePoint" />
            <mxPoint x="957" y="420" as="targetPoint" />
          </mxGeometry>
        </mxCell>
      </root>
    </mxGraphModel>
  </diagram>
</mxfile>
